<mxfile host="app.diagrams.net" modified="2024-05-08T13:27:01.078Z" agent="Mozilla/5.0 (Windows NT 10.0; Win64; x64; rv:125.0) Gecko/20100101 Firefox/125.0" etag="Oem0-v47_PfkTq5hm8MN" version="24.3.0" type="github">
  <diagram id="6a731a19-8d31-9384-78a2-239565b7b9f0" name="Page-1">
    <mxGraphModel dx="819" dy="462" grid="1" gridSize="10" guides="1" tooltips="1" connect="1" arrows="1" fold="1" page="1" pageScale="1" pageWidth="1169" pageHeight="827" background="none" math="1" shadow="0">
      <root>
        <mxCell id="0" />
        <mxCell id="1" parent="0" />
        <mxCell id="9giiuXrlG7l1KYjcWf9B-13" style="edgeStyle=orthogonalEdgeStyle;rounded=0;orthogonalLoop=1;jettySize=auto;html=1;entryX=0;entryY=0.5;entryDx=0;entryDy=0;" edge="1" parent="1" source="9giiuXrlG7l1KYjcWf9B-8" target="9giiuXrlG7l1KYjcWf9B-9">
          <mxGeometry relative="1" as="geometry" />
        </mxCell>
        <mxCell id="9giiuXrlG7l1KYjcWf9B-8" value="&lt;b&gt;&lt;font face=&quot;微软雅黑&quot;&gt;输入层&lt;br&gt;&lt;/font&gt;&lt;/b&gt;" style="rounded=1;whiteSpace=wrap;html=1;strokeWidth=2;fillWeight=4;hachureGap=8;hachureAngle=45;fillColor=#f8cecc;sketch=1;strokeColor=#b85450;" vertex="1" parent="1">
          <mxGeometry x="400" y="160" width="80" height="40" as="geometry" />
        </mxCell>
        <mxCell id="9giiuXrlG7l1KYjcWf9B-14" style="edgeStyle=orthogonalEdgeStyle;rounded=0;orthogonalLoop=1;jettySize=auto;html=1;entryX=0;entryY=0.5;entryDx=0;entryDy=0;" edge="1" parent="1" source="9giiuXrlG7l1KYjcWf9B-9" target="9giiuXrlG7l1KYjcWf9B-11">
          <mxGeometry relative="1" as="geometry" />
        </mxCell>
        <mxCell id="9giiuXrlG7l1KYjcWf9B-9" value="&lt;b&gt;&lt;font face=&quot;微软雅黑&quot;&gt;隐藏层&lt;br&gt;&lt;/font&gt;&lt;/b&gt;" style="rounded=1;whiteSpace=wrap;html=1;strokeWidth=2;fillWeight=4;hachureGap=8;hachureAngle=45;fillColor=#f8cecc;sketch=1;strokeColor=#b85450;" vertex="1" parent="1">
          <mxGeometry x="520" y="160" width="80" height="40" as="geometry" />
        </mxCell>
        <mxCell id="9giiuXrlG7l1KYjcWf9B-16" value="" style="edgeStyle=orthogonalEdgeStyle;rounded=0;orthogonalLoop=1;jettySize=auto;html=1;" edge="1" parent="1" source="9giiuXrlG7l1KYjcWf9B-11" target="9giiuXrlG7l1KYjcWf9B-15">
          <mxGeometry relative="1" as="geometry" />
        </mxCell>
        <mxCell id="9giiuXrlG7l1KYjcWf9B-11" value="&lt;b&gt;&lt;font face=&quot;微软雅黑&quot;&gt;隐藏层&lt;br&gt;&lt;/font&gt;&lt;/b&gt;" style="rounded=1;whiteSpace=wrap;html=1;strokeWidth=2;fillWeight=4;hachureGap=8;hachureAngle=45;fillColor=#f8cecc;sketch=1;strokeColor=#b85450;" vertex="1" parent="1">
          <mxGeometry x="640" y="160" width="80" height="40" as="geometry" />
        </mxCell>
        <mxCell id="9giiuXrlG7l1KYjcWf9B-18" value="" style="edgeStyle=orthogonalEdgeStyle;rounded=0;orthogonalLoop=1;jettySize=auto;html=1;" edge="1" parent="1" source="9giiuXrlG7l1KYjcWf9B-15" target="9giiuXrlG7l1KYjcWf9B-17">
          <mxGeometry relative="1" as="geometry" />
        </mxCell>
        <mxCell id="9giiuXrlG7l1KYjcWf9B-15" value="&lt;b&gt;&lt;font face=&quot;微软雅黑&quot;&gt;隐藏层&lt;br&gt;&lt;/font&gt;&lt;/b&gt;" style="rounded=1;whiteSpace=wrap;html=1;strokeWidth=2;fillWeight=4;hachureGap=8;hachureAngle=45;fillColor=#f8cecc;sketch=1;strokeColor=#b85450;" vertex="1" parent="1">
          <mxGeometry x="760" y="160" width="80" height="40" as="geometry" />
        </mxCell>
        <mxCell id="9giiuXrlG7l1KYjcWf9B-17" value="&lt;b&gt;&lt;font face=&quot;微软雅黑&quot;&gt;输出层&lt;br&gt;&lt;/font&gt;&lt;/b&gt;" style="rounded=1;whiteSpace=wrap;html=1;strokeWidth=2;fillWeight=4;hachureGap=8;hachureAngle=45;fillColor=#f8cecc;sketch=1;strokeColor=#b85450;" vertex="1" parent="1">
          <mxGeometry x="880" y="160" width="80" height="40" as="geometry" />
        </mxCell>
        <mxCell id="9giiuXrlG7l1KYjcWf9B-21" style="edgeStyle=orthogonalEdgeStyle;rounded=0;orthogonalLoop=1;jettySize=auto;html=1;" edge="1" parent="1" source="9giiuXrlG7l1KYjcWf9B-20">
          <mxGeometry relative="1" as="geometry">
            <mxPoint x="500" y="180" as="targetPoint" />
          </mxGeometry>
        </mxCell>
        <mxCell id="9giiuXrlG7l1KYjcWf9B-20" value="&lt;font face=&quot;微软雅黑&quot;&gt;Relu&lt;/font&gt;" style="ellipse;whiteSpace=wrap;html=1;strokeWidth=2;fillWeight=2;hachureGap=8;fillColor=#f8cecc;fillStyle=dots;sketch=1;strokeColor=#b85450;" vertex="1" parent="1">
          <mxGeometry x="460" y="100" width="80" height="40" as="geometry" />
        </mxCell>
        <mxCell id="9giiuXrlG7l1KYjcWf9B-22" style="edgeStyle=orthogonalEdgeStyle;rounded=0;orthogonalLoop=1;jettySize=auto;html=1;" edge="1" parent="1" source="9giiuXrlG7l1KYjcWf9B-23">
          <mxGeometry relative="1" as="geometry">
            <mxPoint x="620" y="180" as="targetPoint" />
          </mxGeometry>
        </mxCell>
        <mxCell id="9giiuXrlG7l1KYjcWf9B-23" value="&lt;font face=&quot;微软雅黑&quot;&gt;Relu&lt;/font&gt;" style="ellipse;whiteSpace=wrap;html=1;strokeWidth=2;fillWeight=2;hachureGap=8;fillColor=#f8cecc;fillStyle=dots;sketch=1;strokeColor=#b85450;" vertex="1" parent="1">
          <mxGeometry x="580" y="100" width="80" height="40" as="geometry" />
        </mxCell>
        <mxCell id="9giiuXrlG7l1KYjcWf9B-24" style="edgeStyle=orthogonalEdgeStyle;rounded=0;orthogonalLoop=1;jettySize=auto;html=1;" edge="1" source="9giiuXrlG7l1KYjcWf9B-25" parent="1">
          <mxGeometry relative="1" as="geometry">
            <mxPoint x="740" y="180" as="targetPoint" />
          </mxGeometry>
        </mxCell>
        <mxCell id="9giiuXrlG7l1KYjcWf9B-25" value="&lt;font face=&quot;微软雅黑&quot;&gt;Relu&lt;/font&gt;" style="ellipse;whiteSpace=wrap;html=1;strokeWidth=2;fillWeight=2;hachureGap=8;fillColor=#f8cecc;fillStyle=dots;sketch=1;strokeColor=#b85450;" vertex="1" parent="1">
          <mxGeometry x="700" y="100" width="80" height="40" as="geometry" />
        </mxCell>
        <mxCell id="9giiuXrlG7l1KYjcWf9B-27" value="&lt;font face=&quot;微软雅黑&quot;&gt;Linear&lt;/font&gt;" style="ellipse;whiteSpace=wrap;html=1;strokeWidth=2;fillWeight=2;hachureGap=8;fillColor=#f8cecc;fillStyle=dots;sketch=1;strokeColor=#b85450;" vertex="1" parent="1">
          <mxGeometry x="820" y="100" width="80" height="40" as="geometry" />
        </mxCell>
        <mxCell id="9giiuXrlG7l1KYjcWf9B-28" style="edgeStyle=orthogonalEdgeStyle;rounded=0;orthogonalLoop=1;jettySize=auto;html=1;" edge="1" source="9giiuXrlG7l1KYjcWf9B-27" parent="1">
          <mxGeometry relative="1" as="geometry">
            <mxPoint x="860" y="180" as="targetPoint" />
          </mxGeometry>
        </mxCell>
      </root>
    </mxGraphModel>
  </diagram>
</mxfile>
